<svg width="100" height="100" viewBox="0 0 100 100" fill="none" xmlns="http://www.w3.org/2000/svg">
<g clip-path="url(#clip0_54_27)">
<rect width="100" height="100" fill="white"/>
<rect width="100" height="100" fill="#4363A0"/>
<path d="M25.9 95.648C25.268 95.696 24.704 95.628 24.208 95.444C23.712 95.26 23.328 94.992 23.056 94.64C22.792 94.288 22.684 93.884 22.732 93.428C22.748 93.292 22.792 93.144 22.864 92.984C22.944 92.816 23.048 92.664 23.176 92.528C23.304 92.392 23.456 92.296 23.632 92.24C23.808 92.184 24.004 92.2 24.22 92.288C24.268 92.464 24.264 92.592 24.208 92.672C24.16 92.752 24.012 92.84 23.764 92.936C23.628 92.992 23.54 93.056 23.5 93.128C23.404 93.28 23.376 93.476 23.416 93.716C23.456 93.956 23.544 94.168 23.68 94.352C23.864 94.576 24.112 94.74 24.424 94.844C24.736 94.948 25.072 95 25.432 95C25.792 95 26.144 94.952 26.488 94.856C26.832 94.76 27.132 94.62 27.388 94.436C27.652 94.252 27.832 94.032 27.928 93.776C28.056 93.448 28.068 93.14 27.964 92.852C27.86 92.556 27.648 92.316 27.328 92.132C27.104 91.996 26.836 91.888 26.524 91.808C26.212 91.728 25.892 91.652 25.564 91.58C25.196 91.492 24.832 91.396 24.472 91.292C24.112 91.188 23.8 91.048 23.536 90.872C23.272 90.696 23.096 90.46 23.008 90.164C22.896 89.756 22.932 89.38 23.116 89.036C23.3 88.684 23.612 88.4 24.052 88.184C24.412 88.008 24.796 87.896 25.204 87.848C25.62 87.8 26.02 87.812 26.404 87.884C26.788 87.956 27.108 88.088 27.364 88.28C27.548 88.408 27.708 88.576 27.844 88.784C27.988 88.992 28.06 89.164 28.06 89.3C28.052 89.404 28.012 89.504 27.94 89.6C27.876 89.688 27.808 89.772 27.736 89.852C27.64 89.948 27.556 90.048 27.484 90.152C27.348 90.344 27.24 90.448 27.16 90.464C27.08 90.472 26.976 90.448 26.848 90.392C26.776 90.248 26.756 90.12 26.788 90.008C26.828 89.896 26.928 89.768 27.088 89.624C27.16 89.56 27.216 89.5 27.256 89.444C27.304 89.388 27.328 89.324 27.328 89.252C27.328 89.116 27.244 88.988 27.076 88.868C26.916 88.748 26.708 88.652 26.452 88.58C26.196 88.5 25.924 88.46 25.636 88.46C25.396 88.46 25.148 88.492 24.892 88.556C24.636 88.612 24.404 88.7 24.196 88.82C23.988 88.932 23.828 89.08 23.716 89.264C23.612 89.448 23.584 89.668 23.632 89.924C23.656 90.068 23.74 90.196 23.884 90.308C24.036 90.412 24.216 90.504 24.424 90.584C24.64 90.656 24.86 90.724 25.084 90.788C25.316 90.844 25.524 90.896 25.708 90.944C26.012 91.024 26.336 91.12 26.68 91.232C27.032 91.344 27.36 91.484 27.664 91.652C27.976 91.82 28.232 92.028 28.432 92.276C28.824 92.78 28.848 93.4 28.504 94.136C28.376 94.4 28.176 94.644 27.904 94.868C27.64 95.084 27.332 95.26 26.98 95.396C26.636 95.532 26.276 95.616 25.9 95.648ZM33.3665 95.66C32.8865 95.628 32.4465 95.496 32.0465 95.264C31.6545 95.04 31.3145 94.748 31.0265 94.388C30.7465 94.028 30.5265 93.628 30.3665 93.188C30.1425 92.572 30.0625 91.92 30.1265 91.232C30.1985 90.544 30.4225 89.92 30.7985 89.36C30.8705 89.256 30.9825 89.12 31.1345 88.952C31.2865 88.776 31.4585 88.612 31.6505 88.46C31.8425 88.3 32.0385 88.192 32.2385 88.136C32.4465 88.072 32.6385 88.108 32.8145 88.244C32.8225 88.236 32.8385 88.228 32.8625 88.22C33.0225 88.132 33.1705 88.056 33.3065 87.992C33.4505 87.928 33.6145 87.884 33.7985 87.86C33.9905 87.828 34.2265 87.828 34.5065 87.86C35.1225 87.924 35.6545 88.148 36.1025 88.532C36.5505 88.916 36.8865 89.412 37.1105 90.02C37.3425 90.628 37.4305 91.308 37.3745 92.06C37.3345 92.604 37.2025 93.104 36.9785 93.56C36.7625 94.016 36.4705 94.408 36.1025 94.736C35.7425 95.056 35.3265 95.296 34.8545 95.456C34.3905 95.624 33.8945 95.692 33.3665 95.66ZM33.2945 95.012C33.7985 95.068 34.2505 95.024 34.6505 94.88C35.0585 94.728 35.4065 94.508 35.6945 94.22C35.9825 93.932 36.2105 93.604 36.3785 93.236C36.5465 92.86 36.6465 92.468 36.6785 92.06C36.7345 91.42 36.6785 90.844 36.5105 90.332C36.3425 89.812 36.0825 89.392 35.7305 89.072C35.3785 88.752 34.9505 88.56 34.4465 88.496C34.0545 88.448 33.6985 88.504 33.3785 88.664C33.0665 88.816 32.8305 89.036 32.6705 89.324C32.5105 89.612 32.4665 89.932 32.5385 90.284C32.5785 90.46 32.6705 90.636 32.8145 90.812C32.9585 90.988 33.1305 91.132 33.3305 91.244C33.3625 91.26 33.3825 91.268 33.3905 91.268C33.4305 91.276 33.4625 91.284 33.4865 91.292C33.5105 91.3 33.5425 91.312 33.5825 91.328C33.7025 91.36 33.8265 91.412 33.9545 91.484C34.0905 91.548 34.1705 91.672 34.1945 91.856L34.1585 91.928C33.9025 92.152 33.4985 92.1 32.9465 91.772C32.8105 91.692 32.6665 91.58 32.5145 91.436C32.3625 91.284 32.2345 91.128 32.1305 90.968C31.9785 90.704 31.8945 90.4 31.8785 90.056C31.8705 89.712 31.9425 89.352 32.0945 88.976C31.6545 89.216 31.3265 89.56 31.1105 90.008C30.9025 90.448 30.7945 90.932 30.7865 91.46C30.7865 91.98 30.8705 92.484 31.0385 92.972C31.2225 93.5 31.5025 93.96 31.8785 94.352C32.2625 94.736 32.7345 94.956 33.2945 95.012ZM38.0176 96.5L37.9336 96.464C37.8776 96.296 37.8736 96.172 37.9216 96.092C37.9696 96.02 38.0376 95.944 38.1256 95.864C38.1336 95.856 38.1376 95.852 38.1376 95.852C38.1616 95.828 38.1856 95.804 38.2096 95.78C38.2336 95.764 38.2576 95.744 38.2816 95.72C38.6496 95.376 38.9336 94.96 39.1336 94.472C39.3336 93.976 39.4736 93.428 39.5536 92.828C39.6416 92.22 39.6896 91.568 39.6976 90.872C39.7136 90.176 39.7176 89.448 39.7096 88.688C39.7096 88.616 39.7096 88.548 39.7096 88.484C39.7096 88.412 39.7096 88.34 39.7096 88.268C39.7496 88.156 39.8176 88.088 39.9136 88.064H39.9376C40.2256 88.08 40.4856 88.172 40.7176 88.34C40.9576 88.508 41.1696 88.72 41.3536 88.976C41.5456 89.232 41.7136 89.496 41.8576 89.768C42.0016 90.04 42.1256 90.284 42.2296 90.5C42.3656 90.78 42.4856 91.064 42.5896 91.352C42.7016 91.632 42.8096 91.912 42.9136 92.192C43.0016 92.408 43.0856 92.624 43.1656 92.84C43.2456 93.048 43.3256 93.252 43.4056 93.452C43.4696 93.236 43.5336 92.964 43.5976 92.636C43.6936 92.22 43.7976 91.796 43.9096 91.364C44.0296 90.932 44.1696 90.516 44.3296 90.116C44.4896 89.716 44.6856 89.364 44.9176 89.06C45.1496 88.748 45.4256 88.512 45.7456 88.352C45.8656 88.288 46.0376 88.24 46.2616 88.208C46.4856 88.168 46.7136 88.16 46.9456 88.184C47.1776 88.208 47.3696 88.28 47.5216 88.4L47.5576 88.46C47.5496 88.644 47.5336 88.848 47.5096 89.072C47.4936 89.288 47.4736 89.516 47.4496 89.756C47.4496 89.78 47.4456 89.808 47.4376 89.84C47.4376 89.864 47.4376 89.888 47.4376 89.912C47.3816 90.488 47.3336 91.104 47.2936 91.76C47.2536 92.416 47.2616 93.056 47.3176 93.68C47.3496 93.96 47.3856 94.224 47.4256 94.472C47.4736 94.712 47.5776 94.86 47.7376 94.916C47.9136 94.98 48.0656 94.984 48.1936 94.928C48.3216 94.872 48.4496 94.8 48.5776 94.712L48.5896 94.7C48.7016 94.628 48.8216 94.56 48.9496 94.496C49.0776 94.432 49.2256 94.412 49.3936 94.436L49.4656 94.472C49.5296 94.616 49.5176 94.752 49.4296 94.88C49.3496 95 49.2296 95.108 49.0696 95.204C48.9176 95.308 48.7576 95.388 48.5896 95.444C48.4296 95.508 48.2976 95.548 48.1936 95.564C47.9056 95.604 47.6616 95.58 47.4616 95.492C47.2696 95.404 47.1136 95.272 46.9936 95.096C46.8336 94.864 46.7256 94.568 46.6696 94.208C46.6136 93.848 46.5856 93.468 46.5856 93.068C46.5936 92.668 46.6056 92.288 46.6216 91.928C46.6376 91.68 46.6536 91.436 46.6696 91.196C46.6936 90.948 46.7136 90.712 46.7296 90.488C46.7376 90.424 46.7416 90.36 46.7416 90.296C46.7496 90.232 46.7576 90.172 46.7656 90.116C46.7896 89.876 46.8096 89.652 46.8256 89.444C46.8416 89.236 46.8536 89.044 46.8616 88.868C46.5896 88.804 46.3376 88.82 46.1056 88.916C45.8736 89.004 45.6496 89.188 45.4336 89.468C45.1776 89.804 44.9616 90.208 44.7856 90.68C44.6176 91.144 44.4776 91.644 44.3656 92.18C44.2536 92.708 44.1536 93.244 44.0656 93.788C44.0576 93.828 44.0496 93.876 44.0416 93.932C44.0416 93.98 44.0376 94.032 44.0296 94.088C43.9736 94.552 43.9176 94.876 43.8616 95.06C43.8056 95.244 43.7216 95.344 43.6096 95.36C43.4656 95.392 43.3336 95.296 43.2136 95.072C43.1016 94.848 42.9656 94.448 42.8056 93.872C42.7736 93.784 42.7536 93.72 42.7456 93.68C42.7376 93.632 42.7296 93.6 42.7216 93.584C42.5296 93.024 42.3256 92.46 42.1096 91.892C41.8936 91.324 41.6496 90.788 41.3776 90.284C41.1056 89.78 40.7816 89.352 40.4056 89C40.4056 89.552 40.3936 90.128 40.3696 90.728C40.3536 91.328 40.3096 91.92 40.2376 92.504C40.1736 93.088 40.0696 93.636 39.9256 94.148C39.7816 94.66 39.5856 95.104 39.3376 95.48C39.3216 95.504 39.2976 95.536 39.2656 95.576C39.1776 95.72 39.0736 95.864 38.9536 96.008C38.8416 96.152 38.7056 96.272 38.5456 96.368C38.3936 96.464 38.2176 96.508 38.0176 96.5ZM53.0761 95.252C52.5801 95.228 52.1041 95.132 51.6481 94.964C51.1921 94.788 50.8121 94.536 50.5081 94.208C50.2121 93.872 50.0441 93.46 50.0041 92.972C49.9401 92.196 50.2881 91.532 51.0481 90.98C51.0401 90.972 51.0321 90.964 51.0241 90.956C51.0161 90.948 51.0081 90.94 51.0001 90.932C50.9681 90.908 50.9361 90.884 50.9041 90.86C50.8721 90.828 50.8281 90.796 50.7721 90.764C50.5881 90.628 50.4121 90.476 50.2441 90.308C50.0841 90.132 49.9921 89.896 49.9681 89.6C49.9361 89.248 50.0201 88.924 50.2201 88.628C50.4281 88.332 50.7241 88.092 51.1081 87.908C51.4921 87.716 51.9281 87.612 52.4161 87.596C52.7921 87.58 53.1721 87.616 53.5561 87.704C53.9481 87.784 54.3081 87.904 54.6361 88.064C54.9721 88.216 55.2361 88.396 55.4281 88.604C55.5081 88.684 55.5841 88.796 55.6561 88.94C55.7281 89.084 55.7761 89.236 55.8001 89.396C55.8321 89.556 55.8121 89.696 55.7401 89.816C55.6681 89.936 55.5281 90.016 55.3201 90.056H55.2601C55.1641 89.984 55.1041 89.916 55.0801 89.852C55.0641 89.78 55.0721 89.692 55.1041 89.588C55.1281 89.468 55.1361 89.384 55.1281 89.336C55.0961 89.176 54.9881 89.032 54.8041 88.904C54.6201 88.768 54.3961 88.652 54.1321 88.556C53.8761 88.452 53.6081 88.376 53.3281 88.328C53.0561 88.272 52.8121 88.244 52.5961 88.244C52.3241 88.244 52.0441 88.292 51.7561 88.388C51.4681 88.476 51.2161 88.6 51.0001 88.76C50.7921 88.92 50.6601 89.108 50.6041 89.324C50.5561 89.532 50.6321 89.752 50.8321 89.984C51.0081 90.184 51.2801 90.352 51.6481 90.488C52.0161 90.616 52.4361 90.696 52.9081 90.728C52.9641 90.728 53.0201 90.728 53.0761 90.728C53.1321 90.72 53.1881 90.712 53.2441 90.704C53.5801 90.648 53.8281 90.688 53.9881 90.824L54.0001 90.872C53.9681 91.12 53.8601 91.276 53.6761 91.34C53.4921 91.396 53.1681 91.392 52.7041 91.328C52.6961 91.328 52.6881 91.328 52.6801 91.328C52.5921 91.312 52.5081 91.3 52.4281 91.292C52.3561 91.284 52.2881 91.284 52.2241 91.292C51.7841 91.3 51.4161 91.444 51.1201 91.724C50.8321 91.996 50.6801 92.332 50.6641 92.732C50.6481 93.164 50.7521 93.52 50.9761 93.8C51.2081 94.08 51.5121 94.288 51.8881 94.424C52.2721 94.552 52.6801 94.62 53.1121 94.628C53.6321 94.636 54.1241 94.556 54.5881 94.388C55.0601 94.212 55.4121 93.976 55.6441 93.68C55.6521 93.672 55.6641 93.652 55.6801 93.62C55.6961 93.588 55.7201 93.528 55.7521 93.44C55.8561 93.216 55.9441 93.06 56.0161 92.972C56.0881 92.884 56.1641 92.84 56.2441 92.84C56.4281 92.832 56.5361 92.904 56.5681 93.056C56.6001 93.2 56.5521 93.404 56.4241 93.668C56.2881 93.924 56.1321 94.14 55.9561 94.316C55.6441 94.628 55.2321 94.864 54.7201 95.024C54.2161 95.192 53.6681 95.268 53.0761 95.252ZM60.0245 95L65.2625 80.528H65.8385L60.6005 95H60.0245ZM57.5045 95L62.7425 80.528H63.3005L58.0805 95H57.5045ZM58.7645 95L63.9845 80.528H64.5785L59.3405 95H58.7645ZM70.5725 95L65.8745 82.022L66.1625 81.212L71.1485 95H70.5725ZM69.3125 95L65.2625 83.786L65.5325 82.958L69.8885 95H69.3125ZM68.0525 95L64.6325 85.532L64.9205 84.722L68.6285 95H68.0525ZM62.9585 90.212L63.1565 89.672H65.5325L65.7305 90.212H62.9585ZM62.5265 91.418L62.7245 90.878H65.9645L66.1625 91.418H62.5265ZM62.0945 92.606L62.2925 92.066H66.3965L66.5945 92.606H62.0945Z" fill="black"/>
<path d="M48.59 69.47C45.17 69.47 42.32 68.78 40.04 67.4C37.82 66.02 36.14 64.19 35 61.91C33.92 59.57 33.38 56.99 33.38 54.17V7.64H36.08V54.17C36.08 57.65 37.07 60.62 39.05 63.08C41.03 65.54 44.21 66.77 48.59 66.77C52.97 66.77 56.15 65.54 58.13 63.08C60.11 60.62 61.1 57.65 61.1 54.17V7.64H63.8V54.17C63.8 56.99 63.23 59.57 62.09 61.91C61.01 64.19 59.33 66.02 57.05 67.4C54.83 68.78 52.01 69.47 48.59 69.47ZM48.59 81.35C43.01 81.35 38.18 80.15 34.1 77.75C30.08 75.29 26.96 71.99 24.74 67.85C22.58 63.71 21.5 59.15 21.5 54.17V7.64H24.2V54.17C24.2 58.67 25.16 62.78 27.08 66.5C29.06 70.22 31.85 73.19 35.45 75.41C39.11 77.57 43.49 78.65 48.59 78.65C53.69 78.65 58.04 77.57 61.64 75.41C65.3 73.19 68.09 70.22 70.01 66.5C71.99 62.78 72.98 58.67 72.98 54.17V7.64H75.68V54.17C75.68 59.15 74.57 63.71 72.35 67.85C70.19 71.99 67.1 75.29 63.08 77.75C59.06 80.15 54.23 81.35 48.59 81.35ZM48.59 75.41C44.09 75.41 40.25 74.45 37.07 72.53C33.95 70.61 31.55 68.06 29.87 64.88C28.25 61.64 27.44 58.07 27.44 54.17V7.64H30.14V54.17C30.14 57.59 30.83 60.71 32.21 63.53C33.65 66.29 35.75 68.51 38.51 70.19C41.27 71.87 44.63 72.71 48.59 72.71C52.61 72.71 55.97 71.87 58.67 70.19C61.43 68.51 63.5 66.29 64.88 63.53C66.32 60.71 67.04 57.59 67.04 54.17V7.64H69.74V54.17C69.74 58.07 68.9 61.64 67.22 64.88C65.6 68.06 63.2 70.61 60.02 72.53C56.9 74.45 53.09 75.41 48.59 75.41Z" fill="black"/>
</g>
<defs>
<clipPath id="clip0_54_27">
<rect width="100" height="100" fill="white"/>
</clipPath>
</defs>
</svg>
